<svg width="41" height="42" viewBox="0 0 41 42" fill="none" xmlns="http://www.w3.org/2000/svg">
<g clip-path="url(#clip0_13_43)">
<path d="M40.2098 6.93168C41.4163 5.81605 41.2241 4.15902 39.772 3.23207C38.3199 2.30511 36.1632 2.45277 34.9566 3.5684L20.4999 16.8985L6.04311 3.5684C4.8366 2.45277 2.67983 2.30511 1.22774 3.23207C-0.224341 4.15902 -0.416528 5.81605 0.789982 6.93168L16.0475 21L0.789982 35.0684C-0.416528 36.184 -0.224341 37.8411 1.22774 38.768C2.67983 39.695 4.8366 39.5473 6.04311 38.4317L20.4999 25.1016L34.9566 38.4317C36.1632 39.5473 38.3199 39.695 39.772 38.768C41.2241 37.8411 41.4163 36.184 40.2098 35.0684L24.9522 21L40.2098 6.93168Z" fill="white"/>
</g>
<defs>
<clipPath id="clip0_13_43">
<rect width="41" height="42" fill="white"/>
</clipPath>
</defs>
</svg>
